<?xml version="1.0"?>
<svg width="256" height="256" xmlns="http://www.w3.org/2000/svg" xmlns:svg="http://www.w3.org/2000/svg">
 <defs>
  <clipPath id="clip0_340_2">
   <rect fill="white" height="256" id="svg_1" width="256"/>
  </clipPath>
 </defs>
 <g class="layer">
  <title>Layer 1</title>
  <g clip-path="url(#clip0_340_2)" id="svg_2">
   <path d="m128,256c70.69,0 128,-57.31 128,-128c0,-70.69 -57.31,-128 -128,-128c-70.69,0 -128,57.31 -128,128c0,70.69 57.31,128 128,128z" fill="#e8e8e8" id="svg_3"/>
   <path clip-rule="evenodd" d="m76.13,169.43c-3.68,-2.26 -5.93,-6.27 -5.93,-10.58l0,-24.06c0,-0.92 0.24,-1.81 0.7,-2.6c1.43,-2.47 4.61,-3.3 7.08,-1.86l54.3,31.66c3.18,1.86 5.13,5.25 5.13,8.93l0,24.94c0,1.13 -0.31,2.27 -0.9,3.24c-1.79,2.93 -5.61,3.85 -8.54,2.05l-51.84,-31.72zm80.96,-45.69c3.17,1.86 5.13,5.25 5.13,8.93l0,50.59c0,1.5 -0.81,2.88 -2.11,3.6l-11.89,6.7c-0.15,0.08 -0.31,0.14 -0.48,0.19l0,-28.09c0,-3.63 -1.9,-7 -5.03,-8.88l-47.7,-28.53l0,-31.71c0,-0.93 0.25,-1.81 0.71,-2.6c1.43,-2.47 4.61,-3.31 7.07,-1.86l54.3,31.66zm23.76,-37.37c3.19,1.84 5.15,5.26 5.15,8.95l0,73.89c0,1.52 -0.84,2.92 -2.17,3.64l-11.27,6.08l0,-51.44c0,-3.64 -1.9,-6.99 -5.01,-8.87l-48.75,-29.24l0,-30.08c0,-0.92 0.24,-1.81 0.69,-2.6c1.43,-2.47 4.6,-3.3 7.07,-1.87l54.29,31.54z" fill="#e8e8e8" fill-rule="evenodd" id="svg_4"/>
  </g>
 </g>
</svg>