<svg width="40" height="40" viewBox="0 0 40 40" fill="none" xmlns="http://www.w3.org/2000/svg">
<g clip-path="url(#clip0_2111_1396)">
<rect width="40" height="40" rx="20" fill="#FF9D7A"/>
<g filter="url(#filter0_d_2111_1396)">
<path fill-rule="evenodd" clip-rule="evenodd" d="M11.0155 20.2529L20.0001 6L29 20.2775L20.0001 16.352L19.9566 16.3709L20.0001 16.3521L29 20.2776L20.0001 25.3222L11.0179 20.2697L11 20.2775L11.0083 20.2643L11 20.2596L11.0155 20.2529ZM19.9994 26.9787L11 21.9146L19.9994 34V26.9787ZM28.9996 22.0061L19.9998 26.9786V34L28.9996 22.0061Z" fill="white"/>
</g>
<g filter="url(#filter1_d_2111_1396)">
<path fill-rule="evenodd" clip-rule="evenodd" d="M20 0C8.95431 0 0 8.95431 0 20C0 31.0457 8.95431 40 20 40C31.0457 40 40 31.0457 40 20C40 8.95431 31.0457 0 20 0ZM20 2C10.0589 2 2 10.0589 2 20C2 29.9411 10.0589 38 20 38C29.9411 38 38 29.9411 38 20C38 10.0589 29.9411 2 20 2Z" fill="#FFD48A"/>
</g>
</g>
<defs>
<filter id="filter0_d_2111_1396" x="7" y="2" width="26" height="36" filterUnits="userSpaceOnUse" color-interpolation-filters="sRGB">
<feFlood flood-opacity="0" result="BackgroundImageFix"/>
<feColorMatrix in="SourceAlpha" type="matrix" values="0 0 0 0 0 0 0 0 0 0 0 0 0 0 0 0 0 0 127 0" result="hardAlpha"/>
<feOffset/>
<feGaussianBlur stdDeviation="2"/>
<feComposite in2="hardAlpha" operator="out"/>
<feColorMatrix type="matrix" values="0 0 0 0 1 0 0 0 0 0.326923 0 0 0 0 0.3 0 0 0 1 0"/>
<feBlend mode="normal" in2="BackgroundImageFix" result="effect1_dropShadow_2111_1396"/>
<feBlend mode="normal" in="SourceGraphic" in2="effect1_dropShadow_2111_1396" result="shape"/>
</filter>
<filter id="filter1_d_2111_1396" x="-4" y="-4" width="48" height="48" filterUnits="userSpaceOnUse" color-interpolation-filters="sRGB">
<feFlood flood-opacity="0" result="BackgroundImageFix"/>
<feColorMatrix in="SourceAlpha" type="matrix" values="0 0 0 0 0 0 0 0 0 0 0 0 0 0 0 0 0 0 127 0" result="hardAlpha"/>
<feOffset/>
<feGaussianBlur stdDeviation="2"/>
<feComposite in2="hardAlpha" operator="out"/>
<feColorMatrix type="matrix" values="0 0 0 0 1 0 0 0 0 0.326923 0 0 0 0 0.3 0 0 0 1 0"/>
<feBlend mode="normal" in2="BackgroundImageFix" result="effect1_dropShadow_2111_1396"/>
<feBlend mode="normal" in="SourceGraphic" in2="effect1_dropShadow_2111_1396" result="shape"/>
</filter>
<clipPath id="clip0_2111_1396">
<rect width="40" height="40" rx="20" fill="white"/>
</clipPath>
</defs>
</svg>
